FILE "Woher kommt unser Frühstück.mp3" MP3
  TRACK 01 AUDIO
    TITLE "Kapitel 1"
    INDEX 01 00:00:00
  TRACK 02 AUDIO
    TITLE "Kapitel 2"
    INDEX 01 03:32:00
  TRACK 03 AUDIO
    TITLE "Kapitel 3"
    INDEX 01 06:46:00
  TRACK 04 AUDIO
    TITLE "Kapitel 4"
    INDEX 01 11:10:00
  TRACK 05 AUDIO
    TITLE "Kapitel 5"
    INDEX 01 14:39:00
  TRACK 06 AUDIO
    TITLE "Kapitel 6"
    INDEX 01 16:55:00
  TRACK 07 AUDIO
    TITLE "Kapitel 7"
    INDEX 01 20:53:00
